<mxfile host="app.diagrams.net" agent="Mozilla/5.0 (Windows NT 10.0; Win64; x64) AppleWebKit/537.36 (KHTML, like Gecko) Chrome/131.0.0.0 Safari/537.36 Edg/131.0.0.0" version="25.0.3">
  <diagram name="第 1 页" id="YWPzE99_uLLb6ZJ-fesW">
    <mxGraphModel dx="564" dy="816" grid="1" gridSize="10" guides="1" tooltips="1" connect="1" arrows="1" fold="1" page="1" pageScale="1" pageWidth="827" pageHeight="1169" math="0" shadow="0">
      <root>
        <mxCell id="0" />
        <mxCell id="1" parent="0" />
        <mxCell id="MiiahVeBcN5eX0PWJ4ss-1" value="Topic" style="rounded=0;whiteSpace=wrap;html=1;" vertex="1" parent="1">
          <mxGeometry x="434" y="370" width="106" height="30" as="geometry" />
        </mxCell>
        <mxCell id="MiiahVeBcN5eX0PWJ4ss-2" value="title" style="ellipse;whiteSpace=wrap;html=1;" vertex="1" parent="1">
          <mxGeometry x="300" y="290" width="50" height="40" as="geometry" />
        </mxCell>
        <mxCell id="MiiahVeBcN5eX0PWJ4ss-3" value="id&lt;img height=&quot;0&quot; width=&quot;0&quot; src=&quot;&lt;mxfile host=&amp;quot;app.diagrams.net&amp;quot; agent=&amp;quot;Mozilla/5.0 (Windows NT 10.0; Win64; x64) AppleWebKit/537.36 (KHTML, like Gecko) Chrome/131.0.0.0 Safari/537.36 Edg/131.0.0.0&amp;quot; version=&amp;quot;25.0.3&amp;quot; scale=&amp;quot;1&amp;quot; border=&amp;quot;0&amp;quot;&gt;&lt;br/&gt;  &lt;diagram name=&amp;quot;Page-1&amp;quot; id=&amp;quot;b5b7bab2-c9e2-2cf4-8b2a-24fd1a2a6d21&amp;quot;&gt;&lt;br/&gt;    &lt;mxGraphModel dx=&amp;quot;1022&amp;quot; dy=&amp;quot;620&amp;quot; grid=&amp;quot;1&amp;quot; gridSize=&amp;quot;10&amp;quot; guides=&amp;quot;1&amp;quot; tooltips=&amp;quot;1&amp;quot; connect=&amp;quot;1&amp;quot; arrows=&amp;quot;1&amp;quot; fold=&amp;quot;1&amp;quot; page=&amp;quot;1&amp;quot; pageScale=&amp;quot;1&amp;quot; pageWidth=&amp;quot;827&amp;quot; pageHeight=&amp;quot;1169&amp;quot; background=&amp;quot;none&amp;quot; math=&amp;quot;0&amp;quot; shadow=&amp;quot;0&amp;quot;&gt;&lt;br/&gt;      &lt;root&gt;&lt;br/&gt;        &lt;mxCell id=&amp;quot;0&amp;quot; /&gt;&lt;br/&gt;        &lt;mxCell id=&amp;quot;1&amp;quot; parent=&amp;quot;0&amp;quot; /&gt;&lt;br/&gt;        &lt;mxCell id=&amp;quot;3tw9AYnYGGNFN01JuL-y-1&amp;quot; value=&amp;quot;login.html&amp;quot; style=&amp;quot;swimlane;startSize=20;&amp;quot; vertex=&amp;quot;1&amp;quot; parent=&amp;quot;1&amp;quot;&gt;&lt;br/&gt;          &lt;mxGeometry x=&amp;quot;110&amp;quot; y=&amp;quot;200&amp;quot; width=&amp;quot;320&amp;quot; height=&amp;quot;220&amp;quot; as=&amp;quot;geometry&amp;quot; /&gt;&lt;br/&gt;        &lt;/mxCell&gt;&lt;br/&gt;        &lt;mxCell id=&amp;quot;3tw9AYnYGGNFN01JuL-y-28&amp;quot; value=&amp;quot;Login Button&amp;quot; style=&amp;quot;swimlane;fontStyle=0;childLayout=stackLayout;horizontal=1;startSize=30;horizontalStack=0;resizeParent=1;resizeParentMax=0;resizeLast=0;collapsible=1;marginBottom=0;whiteSpace=wrap;html=1;&amp;quot; vertex=&amp;quot;1&amp;quot; parent=&amp;quot;3tw9AYnYGGNFN01JuL-y-1&amp;quot;&gt;&lt;br/&gt;          &lt;mxGeometry x=&amp;quot;194&amp;quot; y=&amp;quot;150&amp;quot; width=&amp;quot;110&amp;quot; height=&amp;quot;60&amp;quot; as=&amp;quot;geometry&amp;quot; /&gt;&lt;br/&gt;        &lt;/mxCell&gt;&lt;br/&gt;        &lt;mxCell id=&amp;quot;3tw9AYnYGGNFN01JuL-y-29&amp;quot; value=&amp;quot;click(/login,POST)&amp;quot; style=&amp;quot;text;strokeColor=none;fillColor=none;align=left;verticalAlign=middle;spacingLeft=4;spacingRight=4;overflow=hidden;points=[[0,0.5],[1,0.5]];portConstraint=eastwest;rotatable=0;whiteSpace=wrap;html=1;&amp;quot; vertex=&amp;quot;1&amp;quot; parent=&amp;quot;3tw9AYnYGGNFN01JuL-y-28&amp;quot;&gt;&lt;br/&gt;          &lt;mxGeometry y=&amp;quot;30&amp;quot; width=&amp;quot;110&amp;quot; height=&amp;quot;30&amp;quot; as=&amp;quot;geometry&amp;quot; /&gt;&lt;br/&gt;        &lt;/mxCell&gt;&lt;br/&gt;        &lt;mxCell id=&amp;quot;3tw9AYnYGGNFN01JuL-y-34&amp;quot; value=&amp;quot;Forget Button&amp;quot; style=&amp;quot;swimlane;fontStyle=0;childLayout=stackLayout;horizontal=1;startSize=30;horizontalStack=0;resizeParent=1;resizeParentMax=0;resizeLast=0;collapsible=1;marginBottom=0;whiteSpace=wrap;html=1;&amp;quot; vertex=&amp;quot;1&amp;quot; parent=&amp;quot;3tw9AYnYGGNFN01JuL-y-1&amp;quot;&gt;&lt;br/&gt;          &lt;mxGeometry x=&amp;quot;18&amp;quot; y=&amp;quot;130&amp;quot; width=&amp;quot;120&amp;quot; height=&amp;quot;60&amp;quot; as=&amp;quot;geometry&amp;quot; /&gt;&lt;br/&gt;        &lt;/mxCell&gt;&lt;br/&gt;        &lt;mxCell id=&amp;quot;3tw9AYnYGGNFN01JuL-y-35&amp;quot; value=&amp;quot;herf=&amp;amp;quot;forget.html&amp;amp;quot;&amp;quot; style=&amp;quot;text;strokeColor=none;fillColor=none;align=left;verticalAlign=middle;spacingLeft=4;spacingRight=4;overflow=hidden;points=[[0,0.5],[1,0.5]];portConstraint=eastwest;rotatable=0;whiteSpace=wrap;html=1;&amp;quot; vertex=&amp;quot;1&amp;quot; parent=&amp;quot;3tw9AYnYGGNFN01JuL-y-34&amp;quot;&gt;&lt;br/&gt;          &lt;mxGeometry y=&amp;quot;30&amp;quot; width=&amp;quot;120&amp;quot; height=&amp;quot;30&amp;quot; as=&amp;quot;geometry&amp;quot; /&gt;&lt;br/&gt;        &lt;/mxCell&gt;&lt;br/&gt;        &lt;mxCell id=&amp;quot;3tw9AYnYGGNFN01JuL-y-32&amp;quot; value=&amp;quot;Register Button&amp;quot; style=&amp;quot;swimlane;fontStyle=0;childLayout=stackLayout;horizontal=1;startSize=30;horizontalStack=0;resizeParent=1;resizeParentMax=0;resizeLast=0;collapsible=1;marginBottom=0;whiteSpace=wrap;html=1;&amp;quot; vertex=&amp;quot;1&amp;quot; parent=&amp;quot;3tw9AYnYGGNFN01JuL-y-1&amp;quot;&gt;&lt;br/&gt;          &lt;mxGeometry x=&amp;quot;172&amp;quot; y=&amp;quot;40&amp;quot; width=&amp;quot;130&amp;quot; height=&amp;quot;60&amp;quot; as=&amp;quot;geometry&amp;quot; /&gt;&lt;br/&gt;        &lt;/mxCell&gt;&lt;br/&gt;        &lt;mxCell id=&amp;quot;3tw9AYnYGGNFN01JuL-y-33&amp;quot; value=&amp;quot;herf=&amp;amp;quot;register.html&amp;amp;quot;&amp;quot; style=&amp;quot;text;strokeColor=none;fillColor=none;align=left;verticalAlign=middle;spacingLeft=4;spacingRight=4;overflow=hidden;points=[[0,0.5],[1,0.5]];portConstraint=eastwest;rotatable=0;whiteSpace=wrap;html=1;&amp;quot; vertex=&amp;quot;1&amp;quot; parent=&amp;quot;3tw9AYnYGGNFN01JuL-y-32&amp;quot;&gt;&lt;br/&gt;          &lt;mxGeometry y=&amp;quot;30&amp;quot; width=&amp;quot;130&amp;quot; height=&amp;quot;30&amp;quot; as=&amp;quot;geometry&amp;quot; /&gt;&lt;br/&gt;        &lt;/mxCell&gt;&lt;br/&gt;        &lt;mxCell id=&amp;quot;3tw9AYnYGGNFN01JuL-y-42&amp;quot; value=&amp;quot;Text Box&amp;quot; style=&amp;quot;swimlane;fontStyle=0;childLayout=stackLayout;horizontal=1;startSize=30;horizontalStack=0;resizeParent=1;resizeParentMax=0;resizeLast=0;collapsible=1;marginBottom=0;whiteSpace=wrap;html=1;&amp;quot; vertex=&amp;quot;1&amp;quot; parent=&amp;quot;3tw9AYnYGGNFN01JuL-y-1&amp;quot;&gt;&lt;br/&gt;          &lt;mxGeometry x=&amp;quot;38&amp;quot; y=&amp;quot;40&amp;quot; width=&amp;quot;100&amp;quot; height=&amp;quot;60&amp;quot; as=&amp;quot;geometry&amp;quot; /&gt;&lt;br/&gt;        &lt;/mxCell&gt;&lt;br/&gt;        &lt;mxCell id=&amp;quot;3tw9AYnYGGNFN01JuL-y-43&amp;quot; value=&amp;quot;get(text)&amp;quot; style=&amp;quot;text;strokeColor=none;fillColor=none;align=left;verticalAlign=middle;spacingLeft=4;spacingRight=4;overflow=hidden;points=[[0,0.5],[1,0.5]];portConstraint=eastwest;rotatable=0;whiteSpace=wrap;html=1;&amp;quot; vertex=&amp;quot;1&amp;quot; parent=&amp;quot;3tw9AYnYGGNFN01JuL-y-42&amp;quot;&gt;&lt;br/&gt;          &lt;mxGeometry y=&amp;quot;30&amp;quot; width=&amp;quot;100&amp;quot; height=&amp;quot;30&amp;quot; as=&amp;quot;geometry&amp;quot; /&gt;&lt;br/&gt;        &lt;/mxCell&gt;&lt;br/&gt;        &lt;mxCell id=&amp;quot;3tw9AYnYGGNFN01JuL-y-94&amp;quot; value=&amp;quot;&amp;quot; style=&amp;quot;endArrow=none;html=1;rounded=0;&amp;quot; edge=&amp;quot;1&amp;quot; parent=&amp;quot;3tw9AYnYGGNFN01JuL-y-1&amp;quot;&gt;&lt;br/&gt;          &lt;mxGeometry width=&amp;quot;50&amp;quot; height=&amp;quot;50&amp;quot; relative=&amp;quot;1&amp;quot; as=&amp;quot;geometry&amp;quot;&gt;&lt;br/&gt;            &lt;mxPoint x=&amp;quot;350&amp;quot; y=&amp;quot;300&amp;quot; as=&amp;quot;sourcePoint&amp;quot; /&gt;&lt;br/&gt;            &lt;mxPoint x=&amp;quot;350&amp;quot; y=&amp;quot;200&amp;quot; as=&amp;quot;targetPoint&amp;quot; /&gt;&lt;br/&gt;          &lt;/mxGeometry&gt;&lt;br/&gt;        &lt;/mxCell&gt;&lt;br/&gt;        &lt;mxCell id=&amp;quot;3tw9AYnYGGNFN01JuL-y-3&amp;quot; value=&amp;quot;forget.html&amp;quot; style=&amp;quot;swimlane;startSize=20;&amp;quot; vertex=&amp;quot;1&amp;quot; parent=&amp;quot;1&amp;quot;&gt;&lt;br/&gt;          &lt;mxGeometry x=&amp;quot;180&amp;quot; y=&amp;quot;460&amp;quot; width=&amp;quot;250&amp;quot; height=&amp;quot;190&amp;quot; as=&amp;quot;geometry&amp;quot; /&gt;&lt;br/&gt;        &lt;/mxCell&gt;&lt;br/&gt;        &lt;mxCell id=&amp;quot;3tw9AYnYGGNFN01JuL-y-40&amp;quot; value=&amp;quot;Forget Button&amp;quot; style=&amp;quot;swimlane;fontStyle=0;childLayout=stackLayout;horizontal=1;startSize=30;horizontalStack=0;resizeParent=1;resizeParentMax=0;resizeLast=0;collapsible=1;marginBottom=0;whiteSpace=wrap;html=1;&amp;quot; vertex=&amp;quot;1&amp;quot; parent=&amp;quot;3tw9AYnYGGNFN01JuL-y-3&amp;quot;&gt;&lt;br/&gt;          &lt;mxGeometry x=&amp;quot;100&amp;quot; y=&amp;quot;100&amp;quot; width=&amp;quot;130&amp;quot; height=&amp;quot;60&amp;quot; as=&amp;quot;geometry&amp;quot; /&gt;&lt;br/&gt;        &lt;/mxCell&gt;&lt;br/&gt;        &lt;mxCell id=&amp;quot;3tw9AYnYGGNFN01JuL-y-41&amp;quot; value=&amp;quot;click(/forget,POST)&amp;quot; style=&amp;quot;text;strokeColor=none;fillColor=none;align=left;verticalAlign=middle;spacingLeft=4;spacingRight=4;overflow=hidden;points=[[0,0.5],[1,0.5]];portConstraint=eastwest;rotatable=0;whiteSpace=wrap;html=1;&amp;quot; vertex=&amp;quot;1&amp;quot; parent=&amp;quot;3tw9AYnYGGNFN01JuL-y-40&amp;quot;&gt;&lt;br/&gt;          &lt;mxGeometry y=&amp;quot;30&amp;quot; width=&amp;quot;130&amp;quot; height=&amp;quot;30&amp;quot; as=&amp;quot;geometry&amp;quot; /&gt;&lt;br/&gt;        &lt;/mxCell&gt;&lt;br/&gt;        &lt;mxCell id=&amp;quot;3tw9AYnYGGNFN01JuL-y-46&amp;quot; value=&amp;quot;Text Box&amp;quot; style=&amp;quot;swimlane;fontStyle=0;childLayout=stackLayout;horizontal=1;startSize=30;horizontalStack=0;resizeParent=1;resizeParentMax=0;resizeLast=0;collapsible=1;marginBottom=0;whiteSpace=wrap;html=1;&amp;quot; vertex=&amp;quot;1&amp;quot; parent=&amp;quot;3tw9AYnYGGNFN01JuL-y-3&amp;quot;&gt;&lt;br/&gt;          &lt;mxGeometry x=&amp;quot;30&amp;quot; y=&amp;quot;35&amp;quot; width=&amp;quot;100&amp;quot; height=&amp;quot;60&amp;quot; as=&amp;quot;geometry&amp;quot; /&gt;&lt;br/&gt;        &lt;/mxCell&gt;&lt;br/&gt;        &lt;mxCell id=&amp;quot;3tw9AYnYGGNFN01JuL-y-47&amp;quot; value=&amp;quot;get(text)&amp;quot; style=&amp;quot;text;strokeColor=none;fillColor=none;align=left;verticalAlign=middle;spacingLeft=4;spacingRight=4;overflow=hidden;points=[[0,0.5],[1,0.5]];portConstraint=eastwest;rotatable=0;whiteSpace=wrap;html=1;&amp;quot; vertex=&amp;quot;1&amp;quot; parent=&amp;quot;3tw9AYnYGGNFN01JuL-y-46&amp;quot;&gt;&lt;br/&gt;          &lt;mxGeometry y=&amp;quot;30&amp;quot; width=&amp;quot;100&amp;quot; height=&amp;quot;30&amp;quot; as=&amp;quot;geometry&amp;quot; /&gt;&lt;br/&gt;        &lt;/mxCell&gt;&lt;br/&gt;        &lt;mxCell id=&amp;quot;3tw9AYnYGGNFN01JuL-y-4&amp;quot; value=&amp;quot;register.html&amp;quot; style=&amp;quot;swimlane;startSize=20;&amp;quot; vertex=&amp;quot;1&amp;quot; parent=&amp;quot;1&amp;quot;&gt;&lt;br/&gt;          &lt;mxGeometry x=&amp;quot;520&amp;quot; y=&amp;quot;200&amp;quot; width=&amp;quot;280&amp;quot; height=&amp;quot;210&amp;quot; as=&amp;quot;geometry&amp;quot; /&gt;&lt;br/&gt;        &lt;/mxCell&gt;&lt;br/&gt;        &lt;mxCell id=&amp;quot;3tw9AYnYGGNFN01JuL-y-38&amp;quot; value=&amp;quot;Register Button&amp;quot; style=&amp;quot;swimlane;fontStyle=0;childLayout=stackLayout;horizontal=1;startSize=30;horizontalStack=0;resizeParent=1;resizeParentMax=0;resizeLast=0;collapsible=1;marginBottom=0;whiteSpace=wrap;html=1;&amp;quot; vertex=&amp;quot;1&amp;quot; parent=&amp;quot;3tw9AYnYGGNFN01JuL-y-4&amp;quot;&gt;&lt;br/&gt;          &lt;mxGeometry x=&amp;quot;20&amp;quot; y=&amp;quot;130&amp;quot; width=&amp;quot;130&amp;quot; height=&amp;quot;60&amp;quot; as=&amp;quot;geometry&amp;quot; /&gt;&lt;br/&gt;        &lt;/mxCell&gt;&lt;br/&gt;        &lt;mxCell id=&amp;quot;3tw9AYnYGGNFN01JuL-y-39&amp;quot; value=&amp;quot;click(/register,POST)&amp;quot; style=&amp;quot;text;strokeColor=none;fillColor=none;align=left;verticalAlign=middle;spacingLeft=4;spacingRight=4;overflow=hidden;points=[[0,0.5],[1,0.5]];portConstraint=eastwest;rotatable=0;whiteSpace=wrap;html=1;&amp;quot; vertex=&amp;quot;1&amp;quot; parent=&amp;quot;3tw9AYnYGGNFN01JuL-y-38&amp;quot;&gt;&lt;br/&gt;          &lt;mxGeometry y=&amp;quot;30&amp;quot; width=&amp;quot;130&amp;quot; height=&amp;quot;30&amp;quot; as=&amp;quot;geometry&amp;quot; /&gt;&lt;br/&gt;        &lt;/mxCell&gt;&lt;br/&gt;        &lt;mxCell id=&amp;quot;3tw9AYnYGGNFN01JuL-y-44&amp;quot; value=&amp;quot;Text Box&amp;quot; style=&amp;quot;swimlane;fontStyle=0;childLayout=stackLayout;horizontal=1;startSize=30;horizontalStack=0;resizeParent=1;resizeParentMax=0;resizeLast=0;collapsible=1;marginBottom=0;whiteSpace=wrap;html=1;&amp;quot; vertex=&amp;quot;1&amp;quot; parent=&amp;quot;3tw9AYnYGGNFN01JuL-y-4&amp;quot;&gt;&lt;br/&gt;          &lt;mxGeometry x=&amp;quot;50&amp;quot; y=&amp;quot;40&amp;quot; width=&amp;quot;100&amp;quot; height=&amp;quot;60&amp;quot; as=&amp;quot;geometry&amp;quot; /&gt;&lt;br/&gt;        &lt;/mxCell&gt;&lt;br/&gt;        &lt;mxCell id=&amp;quot;3tw9AYnYGGNFN01JuL-y-45&amp;quot; value=&amp;quot;get(text)&amp;quot; style=&amp;quot;text;strokeColor=none;fillColor=none;align=left;verticalAlign=middle;spacingLeft=4;spacingRight=4;overflow=hidden;points=[[0,0.5],[1,0.5]];portConstraint=eastwest;rotatable=0;whiteSpace=wrap;html=1;&amp;quot; vertex=&amp;quot;1&amp;quot; parent=&amp;quot;3tw9AYnYGGNFN01JuL-y-44&amp;quot;&gt;&lt;br/&gt;          &lt;mxGeometry y=&amp;quot;30&amp;quot; width=&amp;quot;100&amp;quot; height=&amp;quot;30&amp;quot; as=&amp;quot;geometry&amp;quot; /&gt;&lt;br/&gt;        &lt;/mxCell&gt;&lt;br/&gt;        &lt;mxCell id=&amp;quot;3tw9AYnYGGNFN01JuL-y-13&amp;quot; value=&amp;quot;Flask&amp;quot; style=&amp;quot;swimlane;startSize=20;&amp;quot; vertex=&amp;quot;1&amp;quot; parent=&amp;quot;1&amp;quot;&gt;&lt;br/&gt;          &lt;mxGeometry x=&amp;quot;600&amp;quot; y=&amp;quot;465&amp;quot; width=&amp;quot;200&amp;quot; height=&amp;quot;110&amp;quot; as=&amp;quot;geometry&amp;quot; /&gt;&lt;br/&gt;        &lt;/mxCell&gt;&lt;br/&gt;        &lt;mxCell id=&amp;quot;3tw9AYnYGGNFN01JuL-y-18&amp;quot; value=&amp;quot;/register&amp;quot; style=&amp;quot;whiteSpace=wrap;html=1;&amp;quot; vertex=&amp;quot;1&amp;quot; parent=&amp;quot;3tw9AYnYGGNFN01JuL-y-13&amp;quot;&gt;&lt;br/&gt;          &lt;mxGeometry x=&amp;quot;10&amp;quot; y=&amp;quot;30&amp;quot; width=&amp;quot;70&amp;quot; height=&amp;quot;20&amp;quot; as=&amp;quot;geometry&amp;quot; /&gt;&lt;br/&gt;        &lt;/mxCell&gt;&lt;br/&gt;        &lt;mxCell id=&amp;quot;3tw9AYnYGGNFN01JuL-y-21&amp;quot; value=&amp;quot;/reset-password&amp;quot; style=&amp;quot;whiteSpace=wrap;html=1;&amp;quot; vertex=&amp;quot;1&amp;quot; parent=&amp;quot;3tw9AYnYGGNFN01JuL-y-13&amp;quot;&gt;&lt;br/&gt;          &lt;mxGeometry x=&amp;quot;90&amp;quot; y=&amp;quot;30&amp;quot; width=&amp;quot;100&amp;quot; height=&amp;quot;20&amp;quot; as=&amp;quot;geometry&amp;quot; /&gt;&lt;br/&gt;        &lt;/mxCell&gt;&lt;br/&gt;        &lt;mxCell id=&amp;quot;3tw9AYnYGGNFN01JuL-y-22&amp;quot; value=&amp;quot;/login&amp;quot; style=&amp;quot;whiteSpace=wrap;html=1;&amp;quot; vertex=&amp;quot;1&amp;quot; parent=&amp;quot;3tw9AYnYGGNFN01JuL-y-13&amp;quot;&gt;&lt;br/&gt;          &lt;mxGeometry x=&amp;quot;10&amp;quot; y=&amp;quot;60&amp;quot; width=&amp;quot;70&amp;quot; height=&amp;quot;20&amp;quot; as=&amp;quot;geometry&amp;quot; /&gt;&lt;br/&gt;        &lt;/mxCell&gt;&lt;br/&gt;        &lt;mxCell id=&amp;quot;3tw9AYnYGGNFN01JuL-y-23&amp;quot; value=&amp;quot;/forgot-password&amp;quot; style=&amp;quot;whiteSpace=wrap;html=1;&amp;quot; vertex=&amp;quot;1&amp;quot; parent=&amp;quot;3tw9AYnYGGNFN01JuL-y-13&amp;quot;&gt;&lt;br/&gt;          &lt;mxGeometry x=&amp;quot;90&amp;quot; y=&amp;quot;60&amp;quot; width=&amp;quot;100&amp;quot; height=&amp;quot;20&amp;quot; as=&amp;quot;geometry&amp;quot; /&gt;&lt;br/&gt;        &lt;/mxCell&gt;&lt;br/&gt;        &lt;mxCell id=&amp;quot;3tw9AYnYGGNFN01JuL-y-26&amp;quot; value=&amp;quot;/submit-feedback&amp;quot; style=&amp;quot;whiteSpace=wrap;html=1;&amp;quot; vertex=&amp;quot;1&amp;quot; parent=&amp;quot;3tw9AYnYGGNFN01JuL-y-13&amp;quot;&gt;&lt;br/&gt;          &lt;mxGeometry x=&amp;quot;50&amp;quot; y=&amp;quot;85&amp;quot; width=&amp;quot;100&amp;quot; height=&amp;quot;20&amp;quot; as=&amp;quot;geometry&amp;quot; /&gt;&lt;br/&gt;        &lt;/mxCell&gt;&lt;br/&gt;        &lt;mxCell id=&amp;quot;3tw9AYnYGGNFN01JuL-y-14&amp;quot; value=&amp;quot;Mysql&amp;quot; style=&amp;quot;swimlane;startSize=20;&amp;quot; vertex=&amp;quot;1&amp;quot; parent=&amp;quot;1&amp;quot;&gt;&lt;br/&gt;          &lt;mxGeometry x=&amp;quot;520&amp;quot; y=&amp;quot;610&amp;quot; width=&amp;quot;280&amp;quot; height=&amp;quot;100&amp;quot; as=&amp;quot;geometry&amp;quot; /&gt;&lt;br/&gt;        &lt;/mxCell&gt;&lt;br/&gt;        &lt;mxCell id=&amp;quot;3tw9AYnYGGNFN01JuL-y-16&amp;quot; value=&amp;quot;user table&amp;quot; style=&amp;quot;whiteSpace=wrap;html=1;&amp;quot; vertex=&amp;quot;1&amp;quot; parent=&amp;quot;3tw9AYnYGGNFN01JuL-y-14&amp;quot;&gt;&lt;br/&gt;          &lt;mxGeometry x=&amp;quot;20&amp;quot; y=&amp;quot;32.5&amp;quot; width=&amp;quot;90&amp;quot; height=&amp;quot;25&amp;quot; as=&amp;quot;geometry&amp;quot; /&gt;&lt;br/&gt;        &lt;/mxCell&gt;&lt;br/&gt;        &lt;mxCell id=&amp;quot;3tw9AYnYGGNFN01JuL-y-17&amp;quot; value=&amp;quot;feedback table&amp;quot; style=&amp;quot;whiteSpace=wrap;html=1;&amp;quot; vertex=&amp;quot;1&amp;quot; parent=&amp;quot;3tw9AYnYGGNFN01JuL-y-14&amp;quot;&gt;&lt;br/&gt;          &lt;mxGeometry x=&amp;quot;140&amp;quot; y=&amp;quot;30&amp;quot; width=&amp;quot;120&amp;quot; height=&amp;quot;30&amp;quot; as=&amp;quot;geometry&amp;quot; /&gt;&lt;br/&gt;        &lt;/mxCell&gt;&lt;br/&gt;        &lt;mxCell id=&amp;quot;3tw9AYnYGGNFN01JuL-y-27&amp;quot; value=&amp;quot;admin table&amp;quot; style=&amp;quot;whiteSpace=wrap;html=1;&amp;quot; vertex=&amp;quot;1&amp;quot; parent=&amp;quot;3tw9AYnYGGNFN01JuL-y-14&amp;quot;&gt;&lt;br/&gt;          &lt;mxGeometry x=&amp;quot;80&amp;quot; y=&amp;quot;70&amp;quot; width=&amp;quot;90&amp;quot; height=&amp;quot;25&amp;quot; as=&amp;quot;geometry&amp;quot; /&gt;&lt;br/&gt;        &lt;/mxCell&gt;&lt;br/&gt;        &lt;mxCell id=&amp;quot;3tw9AYnYGGNFN01JuL-y-49&amp;quot; value=&amp;quot;&amp;quot; style=&amp;quot;rounded=0;orthogonalLoop=1;jettySize=auto;html=1;endArrow=oval;endFill=0;sketch=0;sourcePerimeterSpacing=0;targetPerimeterSpacing=0;endSize=10;&amp;quot; edge=&amp;quot;1&amp;quot; target=&amp;quot;3tw9AYnYGGNFN01JuL-y-50&amp;quot; parent=&amp;quot;1&amp;quot;&gt;&lt;br/&gt;          &lt;mxGeometry relative=&amp;quot;1&amp;quot; as=&amp;quot;geometry&amp;quot;&gt;&lt;br/&gt;            &lt;mxPoint x=&amp;quot;470&amp;quot; y=&amp;quot;380&amp;quot; as=&amp;quot;sourcePoint&amp;quot; /&gt;&lt;br/&gt;          &lt;/mxGeometry&gt;&lt;br/&gt;        &lt;/mxCell&gt;&lt;br/&gt;        &lt;mxCell id=&amp;quot;3tw9AYnYGGNFN01JuL-y-60&amp;quot; value=&amp;quot;&amp;quot; style=&amp;quot;rounded=0;orthogonalLoop=1;jettySize=auto;html=1;endArrow=halfCircle;endFill=0;endSize=6;strokeWidth=1;sketch=0;entryX=0.405;entryY=0.595;entryDx=0;entryDy=0;entryPerimeter=0;&amp;quot; edge=&amp;quot;1&amp;quot; target=&amp;quot;3tw9AYnYGGNFN01JuL-y-62&amp;quot; parent=&amp;quot;1&amp;quot;&gt;&lt;br/&gt;          &lt;mxGeometry relative=&amp;quot;1&amp;quot; as=&amp;quot;geometry&amp;quot;&gt;&lt;br/&gt;            &lt;mxPoint x=&amp;quot;130&amp;quot; y=&amp;quot;420&amp;quot; as=&amp;quot;sourcePoint&amp;quot; /&gt;&lt;br/&gt;            &lt;mxPoint x=&amp;quot;130&amp;quot; y=&amp;quot;430&amp;quot; as=&amp;quot;targetPoint&amp;quot; /&gt;&lt;br/&gt;          &lt;/mxGeometry&gt;&lt;br/&gt;        &lt;/mxCell&gt;&lt;br/&gt;        &lt;mxCell id=&amp;quot;3tw9AYnYGGNFN01JuL-y-61&amp;quot; value=&amp;quot;&amp;quot; style=&amp;quot;rounded=0;orthogonalLoop=1;jettySize=auto;html=1;endArrow=oval;endFill=0;sketch=0;sourcePerimeterSpacing=0;targetPerimeterSpacing=0;endSize=10;&amp;quot; edge=&amp;quot;1&amp;quot; target=&amp;quot;3tw9AYnYGGNFN01JuL-y-62&amp;quot; parent=&amp;quot;1&amp;quot;&gt;&lt;br/&gt;          &lt;mxGeometry relative=&amp;quot;1&amp;quot; as=&amp;quot;geometry&amp;quot;&gt;&lt;br/&gt;            &lt;mxPoint x=&amp;quot;130&amp;quot; y=&amp;quot;510&amp;quot; as=&amp;quot;sourcePoint&amp;quot; /&gt;&lt;br/&gt;          &lt;/mxGeometry&gt;&lt;br/&gt;        &lt;/mxCell&gt;&lt;br/&gt;        &lt;mxCell id=&amp;quot;3tw9AYnYGGNFN01JuL-y-62&amp;quot; value=&amp;quot;&amp;quot; style=&amp;quot;ellipse;whiteSpace=wrap;html=1;align=center;aspect=fixed;fillColor=none;strokeColor=none;resizable=0;perimeter=centerPerimeter;rotatable=0;allowArrows=0;points=[];outlineConnect=1;&amp;quot; vertex=&amp;quot;1&amp;quot; parent=&amp;quot;1&amp;quot;&gt;&lt;br/&gt;          &lt;mxGeometry x=&amp;quot;125&amp;quot; y=&amp;quot;430&amp;quot; width=&amp;quot;10&amp;quot; height=&amp;quot;10&amp;quot; as=&amp;quot;geometry&amp;quot; /&gt;&lt;br/&gt;        &lt;/mxCell&gt;&lt;br/&gt;        &lt;mxCell id=&amp;quot;3tw9AYnYGGNFN01JuL-y-66&amp;quot; value=&amp;quot;&amp;quot; style=&amp;quot;rounded=0;orthogonalLoop=1;jettySize=auto;html=1;endArrow=halfCircle;endFill=0;endSize=6;strokeWidth=1;sketch=0;&amp;quot; edge=&amp;quot;1&amp;quot; target=&amp;quot;3tw9AYnYGGNFN01JuL-y-68&amp;quot; parent=&amp;quot;1&amp;quot;&gt;&lt;br/&gt;          &lt;mxGeometry relative=&amp;quot;1&amp;quot; as=&amp;quot;geometry&amp;quot;&gt;&lt;br/&gt;            &lt;mxPoint x=&amp;quot;180&amp;quot; y=&amp;quot;510&amp;quot; as=&amp;quot;sourcePoint&amp;quot; /&gt;&lt;br/&gt;          &lt;/mxGeometry&gt;&lt;br/&gt;        &lt;/mxCell&gt;&lt;br/&gt;        &lt;mxCell id=&amp;quot;3tw9AYnYGGNFN01JuL-y-67&amp;quot; value=&amp;quot;&amp;quot; style=&amp;quot;rounded=0;orthogonalLoop=1;jettySize=auto;html=1;endArrow=oval;endFill=0;sketch=0;sourcePerimeterSpacing=0;targetPerimeterSpacing=0;endSize=10;&amp;quot; edge=&amp;quot;1&amp;quot; target=&amp;quot;3tw9AYnYGGNFN01JuL-y-68&amp;quot; parent=&amp;quot;1&amp;quot;&gt;&lt;br/&gt;          &lt;mxGeometry relative=&amp;quot;1&amp;quot; as=&amp;quot;geometry&amp;quot;&gt;&lt;br/&gt;            &lt;mxPoint x=&amp;quot;130&amp;quot; y=&amp;quot;510&amp;quot; as=&amp;quot;sourcePoint&amp;quot; /&gt;&lt;br/&gt;          &lt;/mxGeometry&gt;&lt;br/&gt;        &lt;/mxCell&gt;&lt;br/&gt;        &lt;mxCell id=&amp;quot;3tw9AYnYGGNFN01JuL-y-68&amp;quot; value=&amp;quot;&amp;quot; style=&amp;quot;ellipse;whiteSpace=wrap;html=1;align=center;aspect=fixed;fillColor=none;strokeColor=none;resizable=0;perimeter=centerPerimeter;rotatable=0;allowArrows=0;points=[];outlineConnect=1;&amp;quot; vertex=&amp;quot;1&amp;quot; parent=&amp;quot;1&amp;quot;&gt;&lt;br/&gt;          &lt;mxGeometry x=&amp;quot;155&amp;quot; y=&amp;quot;505&amp;quot; width=&amp;quot;10&amp;quot; height=&amp;quot;10&amp;quot; as=&amp;quot;geometry&amp;quot; /&gt;&lt;br/&gt;        &lt;/mxCell&gt;&lt;br/&gt;        &lt;mxCell id=&amp;quot;3tw9AYnYGGNFN01JuL-y-69&amp;quot; value=&amp;quot;&amp;quot; style=&amp;quot;rounded=0;orthogonalLoop=1;jettySize=auto;html=1;endArrow=halfCircle;endFill=0;endSize=6;strokeWidth=1;sketch=0;&amp;quot; edge=&amp;quot;1&amp;quot; parent=&amp;quot;1&amp;quot;&gt;&lt;br/&gt;          &lt;mxGeometry relative=&amp;quot;1&amp;quot; as=&amp;quot;geometry&amp;quot;&gt;&lt;br/&gt;            &lt;mxPoint x=&amp;quot;430&amp;quot; y=&amp;quot;380&amp;quot; as=&amp;quot;sourcePoint&amp;quot; /&gt;&lt;br/&gt;            &lt;mxPoint x=&amp;quot;450&amp;quot; y=&amp;quot;380&amp;quot; as=&amp;quot;targetPoint&amp;quot; /&gt;&lt;br/&gt;          &lt;/mxGeometry&gt;&lt;br/&gt;        &lt;/mxCell&gt;&lt;br/&gt;        &lt;mxCell id=&amp;quot;3tw9AYnYGGNFN01JuL-y-70&amp;quot; value=&amp;quot;&amp;quot; style=&amp;quot;rounded=0;orthogonalLoop=1;jettySize=auto;html=1;endArrow=oval;endFill=0;sketch=0;sourcePerimeterSpacing=0;targetPerimeterSpacing=0;endSize=10;&amp;quot; edge=&amp;quot;1&amp;quot; parent=&amp;quot;1&amp;quot;&gt;&lt;br/&gt;          &lt;mxGeometry relative=&amp;quot;1&amp;quot; as=&amp;quot;geometry&amp;quot;&gt;&lt;br/&gt;            &lt;mxPoint x=&amp;quot;470&amp;quot; y=&amp;quot;380&amp;quot; as=&amp;quot;sourcePoint&amp;quot; /&gt;&lt;br/&gt;            &lt;mxPoint x=&amp;quot;450&amp;quot; y=&amp;quot;380&amp;quot; as=&amp;quot;targetPoint&amp;quot; /&gt;&lt;br/&gt;          &lt;/mxGeometry&gt;&lt;br/&gt;        &lt;/mxCell&gt;&lt;br/&gt;        &lt;mxCell id=&amp;quot;3tw9AYnYGGNFN01JuL-y-71&amp;quot; value=&amp;quot;&amp;quot; style=&amp;quot;ellipse;whiteSpace=wrap;html=1;align=center;aspect=fixed;fillColor=none;strokeColor=none;resizable=0;perimeter=centerPerimeter;rotatable=0;allowArrows=0;points=[];outlineConnect=1;&amp;quot; vertex=&amp;quot;1&amp;quot; parent=&amp;quot;1&amp;quot;&gt;&lt;br/&gt;          &lt;mxGeometry x=&amp;quot;480&amp;quot; y=&amp;quot;340&amp;quot; width=&amp;quot;10&amp;quot; height=&amp;quot;10&amp;quot; as=&amp;quot;geometry&amp;quot; /&gt;&lt;br/&gt;        &lt;/mxCell&gt;&lt;br/&gt;        &lt;mxCell id=&amp;quot;3tw9AYnYGGNFN01JuL-y-72&amp;quot; value=&amp;quot;&amp;quot; style=&amp;quot;rounded=0;orthogonalLoop=1;jettySize=auto;html=1;endArrow=halfCircle;endFill=0;endSize=6;strokeWidth=1;sketch=0;&amp;quot; edge=&amp;quot;1&amp;quot; parent=&amp;quot;1&amp;quot; source=&amp;quot;3tw9AYnYGGNFN01JuL-y-50&amp;quot;&gt;&lt;br/&gt;          &lt;mxGeometry relative=&amp;quot;1&amp;quot; as=&amp;quot;geometry&amp;quot;&gt;&lt;br/&gt;            &lt;mxPoint x=&amp;quot;520&amp;quot; y=&amp;quot;380&amp;quot; as=&amp;quot;sourcePoint&amp;quot; /&gt;&lt;br/&gt;            &lt;mxPoint x=&amp;quot;500&amp;quot; y=&amp;quot;380&amp;quot; as=&amp;quot;targetPoint&amp;quot; /&gt;&lt;br/&gt;          &lt;/mxGeometry&gt;&lt;br/&gt;        &lt;/mxCell&gt;&lt;br/&gt;        &lt;mxCell id=&amp;quot;3tw9AYnYGGNFN01JuL-y-73&amp;quot; value=&amp;quot;&amp;quot; style=&amp;quot;rounded=0;orthogonalLoop=1;jettySize=auto;html=1;endArrow=halfCircle;endFill=0;endSize=6;strokeWidth=1;sketch=0;&amp;quot; edge=&amp;quot;1&amp;quot; parent=&amp;quot;1&amp;quot; target=&amp;quot;3tw9AYnYGGNFN01JuL-y-50&amp;quot;&gt;&lt;br/&gt;          &lt;mxGeometry relative=&amp;quot;1&amp;quot; as=&amp;quot;geometry&amp;quot;&gt;&lt;br/&gt;            &lt;mxPoint x=&amp;quot;520&amp;quot; y=&amp;quot;380&amp;quot; as=&amp;quot;sourcePoint&amp;quot; /&gt;&lt;br/&gt;            &lt;mxPoint x=&amp;quot;500&amp;quot; y=&amp;quot;380&amp;quot; as=&amp;quot;targetPoint&amp;quot; /&gt;&lt;br/&gt;          &lt;/mxGeometry&gt;&lt;br/&gt;        &lt;/mxCell&gt;&lt;br/&gt;        &lt;mxCell id=&amp;quot;3tw9AYnYGGNFN01JuL-y-50&amp;quot; value=&amp;quot;&amp;quot; style=&amp;quot;ellipse;whiteSpace=wrap;html=1;align=center;aspect=fixed;fillColor=none;strokeColor=none;resizable=0;perimeter=centerPerimeter;rotatable=0;allowArrows=0;points=[];outlineConnect=1;&amp;quot; vertex=&amp;quot;1&amp;quot; parent=&amp;quot;1&amp;quot;&gt;&lt;br/&gt;          &lt;mxGeometry x=&amp;quot;495&amp;quot; y=&amp;quot;375&amp;quot; width=&amp;quot;10&amp;quot; height=&amp;quot;10&amp;quot; as=&amp;quot;geometry&amp;quot; /&gt;&lt;br/&gt;        &lt;/mxCell&gt;&lt;br/&gt;        &lt;mxCell id=&amp;quot;3tw9AYnYGGNFN01JuL-y-74&amp;quot; value=&amp;quot;&amp;quot; style=&amp;quot;rounded=0;orthogonalLoop=1;jettySize=auto;html=1;endArrow=halfCircle;endFill=0;endSize=6;strokeWidth=1;sketch=0;&amp;quot; edge=&amp;quot;1&amp;quot; target=&amp;quot;3tw9AYnYGGNFN01JuL-y-76&amp;quot; parent=&amp;quot;1&amp;quot;&gt;&lt;br/&gt;          &lt;mxGeometry relative=&amp;quot;1&amp;quot; as=&amp;quot;geometry&amp;quot;&gt;&lt;br/&gt;            &lt;mxPoint x=&amp;quot;600&amp;quot; y=&amp;quot;500&amp;quot; as=&amp;quot;sourcePoint&amp;quot; /&gt;&lt;br/&gt;          &lt;/mxGeometry&gt;&lt;br/&gt;        &lt;/mxCell&gt;&lt;br/&gt;        &lt;mxCell id=&amp;quot;3tw9AYnYGGNFN01JuL-y-75&amp;quot; value=&amp;quot;&amp;quot; style=&amp;quot;rounded=0;orthogonalLoop=1;jettySize=auto;html=1;endArrow=oval;endFill=0;sketch=0;sourcePerimeterSpacing=0;targetPerimeterSpacing=0;endSize=10;&amp;quot; edge=&amp;quot;1&amp;quot; target=&amp;quot;3tw9AYnYGGNFN01JuL-y-76&amp;quot; parent=&amp;quot;1&amp;quot;&gt;&lt;br/&gt;          &lt;mxGeometry relative=&amp;quot;1&amp;quot; as=&amp;quot;geometry&amp;quot;&gt;&lt;br/&gt;            &lt;mxPoint x=&amp;quot;560&amp;quot; y=&amp;quot;500&amp;quot; as=&amp;quot;sourcePoint&amp;quot; /&gt;&lt;br/&gt;          &lt;/mxGeometry&gt;&lt;br/&gt;        &lt;/mxCell&gt;&lt;br/&gt;        &lt;mxCell id=&amp;quot;3tw9AYnYGGNFN01JuL-y-76&amp;quot; value=&amp;quot;&amp;quot; style=&amp;quot;ellipse;whiteSpace=wrap;html=1;align=center;aspect=fixed;fillColor=none;strokeColor=none;resizable=0;perimeter=centerPerimeter;rotatable=0;allowArrows=0;points=[];outlineConnect=1;&amp;quot; vertex=&amp;quot;1&amp;quot; parent=&amp;quot;1&amp;quot;&gt;&lt;br/&gt;          &lt;mxGeometry x=&amp;quot;575&amp;quot; y=&amp;quot;495&amp;quot; width=&amp;quot;10&amp;quot; height=&amp;quot;10&amp;quot; as=&amp;quot;geometry&amp;quot; /&gt;&lt;br/&gt;        &lt;/mxCell&gt;&lt;br/&gt;        &lt;mxCell id=&amp;quot;3tw9AYnYGGNFN01JuL-y-83&amp;quot; value=&amp;quot;&amp;quot; style=&amp;quot;rounded=0;orthogonalLoop=1;jettySize=auto;html=1;endArrow=halfCircle;endFill=0;endSize=6;strokeWidth=1;sketch=0;&amp;quot; edge=&amp;quot;1&amp;quot; target=&amp;quot;3tw9AYnYGGNFN01JuL-y-85&amp;quot; parent=&amp;quot;1&amp;quot;&gt;&lt;br/&gt;          &lt;mxGeometry relative=&amp;quot;1&amp;quot; as=&amp;quot;geometry&amp;quot;&gt;&lt;br/&gt;            &lt;mxPoint x=&amp;quot;520&amp;quot; y=&amp;quot;675&amp;quot; as=&amp;quot;sourcePoint&amp;quot; /&gt;&lt;br/&gt;          &lt;/mxGeometry&gt;&lt;br/&gt;        &lt;/mxCell&gt;&lt;br/&gt;        &lt;mxCell id=&amp;quot;3tw9AYnYGGNFN01JuL-y-84&amp;quot; value=&amp;quot;&amp;quot; style=&amp;quot;rounded=0;orthogonalLoop=1;jettySize=auto;html=1;endArrow=oval;endFill=0;sketch=0;sourcePerimeterSpacing=0;targetPerimeterSpacing=0;endSize=10;&amp;quot; edge=&amp;quot;1&amp;quot; target=&amp;quot;3tw9AYnYGGNFN01JuL-y-85&amp;quot; parent=&amp;quot;1&amp;quot;&gt;&lt;br/&gt;          &lt;mxGeometry relative=&amp;quot;1&amp;quot; as=&amp;quot;geometry&amp;quot;&gt;&lt;br/&gt;            &lt;mxPoint x=&amp;quot;470&amp;quot; y=&amp;quot;675&amp;quot; as=&amp;quot;sourcePoint&amp;quot; /&gt;&lt;br/&gt;          &lt;/mxGeometry&gt;&lt;br/&gt;        &lt;/mxCell&gt;&lt;br/&gt;        &lt;mxCell id=&amp;quot;3tw9AYnYGGNFN01JuL-y-85&amp;quot; value=&amp;quot;&amp;quot; style=&amp;quot;ellipse;whiteSpace=wrap;html=1;align=center;aspect=fixed;fillColor=none;strokeColor=none;resizable=0;perimeter=centerPerimeter;rotatable=0;allowArrows=0;points=[];outlineConnect=1;&amp;quot; vertex=&amp;quot;1&amp;quot; parent=&amp;quot;1&amp;quot;&gt;&lt;br/&gt;          &lt;mxGeometry x=&amp;quot;495&amp;quot; y=&amp;quot;670&amp;quot; width=&amp;quot;10&amp;quot; height=&amp;quot;10&amp;quot; as=&amp;quot;geometry&amp;quot; /&gt;&lt;br/&gt;        &lt;/mxCell&gt;&lt;br/&gt;        &lt;mxCell id=&amp;quot;3tw9AYnYGGNFN01JuL-y-86&amp;quot; value=&amp;quot;&amp;quot; style=&amp;quot;rounded=0;orthogonalLoop=1;jettySize=auto;html=1;endArrow=halfCircle;endFill=0;endSize=6;strokeWidth=1;sketch=0;&amp;quot; edge=&amp;quot;1&amp;quot; target=&amp;quot;3tw9AYnYGGNFN01JuL-y-88&amp;quot; parent=&amp;quot;1&amp;quot;&gt;&lt;br/&gt;          &lt;mxGeometry relative=&amp;quot;1&amp;quot; as=&amp;quot;geometry&amp;quot;&gt;&lt;br/&gt;            &lt;mxPoint x=&amp;quot;600&amp;quot; y=&amp;quot;520&amp;quot; as=&amp;quot;sourcePoint&amp;quot; /&gt;&lt;br/&gt;          &lt;/mxGeometry&gt;&lt;br/&gt;        &lt;/mxCell&gt;&lt;br/&gt;        &lt;mxCell id=&amp;quot;3tw9AYnYGGNFN01JuL-y-87&amp;quot; value=&amp;quot;&amp;quot; style=&amp;quot;rounded=0;orthogonalLoop=1;jettySize=auto;html=1;endArrow=oval;endFill=0;sketch=0;sourcePerimeterSpacing=0;targetPerimeterSpacing=0;endSize=10;&amp;quot; edge=&amp;quot;1&amp;quot; target=&amp;quot;3tw9AYnYGGNFN01JuL-y-88&amp;quot; parent=&amp;quot;1&amp;quot;&gt;&lt;br/&gt;          &lt;mxGeometry relative=&amp;quot;1&amp;quot; as=&amp;quot;geometry&amp;quot;&gt;&lt;br/&gt;            &lt;mxPoint x=&amp;quot;560&amp;quot; y=&amp;quot;520&amp;quot; as=&amp;quot;sourcePoint&amp;quot; /&gt;&lt;br/&gt;          &lt;/mxGeometry&gt;&lt;br/&gt;        &lt;/mxCell&gt;&lt;br/&gt;        &lt;mxCell id=&amp;quot;3tw9AYnYGGNFN01JuL-y-88&amp;quot; value=&amp;quot;&amp;quot; style=&amp;quot;ellipse;whiteSpace=wrap;html=1;align=center;aspect=fixed;fillColor=none;strokeColor=none;resizable=0;perimeter=centerPerimeter;rotatable=0;allowArrows=0;points=[];outlineConnect=1;&amp;quot; vertex=&amp;quot;1&amp;quot; parent=&amp;quot;1&amp;quot;&gt;&lt;br/&gt;          &lt;mxGeometry x=&amp;quot;575&amp;quot; y=&amp;quot;515&amp;quot; width=&amp;quot;10&amp;quot; height=&amp;quot;10&amp;quot; as=&amp;quot;geometry&amp;quot; /&gt;&lt;br/&gt;        &lt;/mxCell&gt;&lt;br/&gt;        &lt;mxCell id=&amp;quot;3tw9AYnYGGNFN01JuL-y-90&amp;quot; value=&amp;quot;&amp;quot; style=&amp;quot;endArrow=none;html=1;rounded=0;&amp;quot; edge=&amp;quot;1&amp;quot; parent=&amp;quot;1&amp;quot;&gt;&lt;br/&gt;          &lt;mxGeometry width=&amp;quot;50&amp;quot; height=&amp;quot;50&amp;quot; relative=&amp;quot;1&amp;quot; as=&amp;quot;geometry&amp;quot;&gt;&lt;br/&gt;            &lt;mxPoint x=&amp;quot;410&amp;quot; y=&amp;quot;610&amp;quot; as=&amp;quot;sourcePoint&amp;quot; /&gt;&lt;br/&gt;            &lt;mxPoint x=&amp;quot;460&amp;quot; y=&amp;quot;610&amp;quot; as=&amp;quot;targetPoint&amp;quot; /&gt;&lt;br/&gt;          &lt;/mxGeometry&gt;&lt;br/&gt;        &lt;/mxCell&gt;&lt;br/&gt;        &lt;mxCell id=&amp;quot;3tw9AYnYGGNFN01JuL-y-91&amp;quot; value=&amp;quot;&amp;quot; style=&amp;quot;endArrow=none;html=1;rounded=0;&amp;quot; edge=&amp;quot;1&amp;quot; parent=&amp;quot;1&amp;quot;&gt;&lt;br/&gt;          &lt;mxGeometry width=&amp;quot;50&amp;quot; height=&amp;quot;50&amp;quot; relative=&amp;quot;1&amp;quot; as=&amp;quot;geometry&amp;quot;&gt;&lt;br/&gt;            &lt;mxPoint x=&amp;quot;460&amp;quot; y=&amp;quot;610&amp;quot; as=&amp;quot;sourcePoint&amp;quot; /&gt;&lt;br/&gt;            &lt;mxPoint x=&amp;quot;460&amp;quot; y=&amp;quot;500&amp;quot; as=&amp;quot;targetPoint&amp;quot; /&gt;&lt;br/&gt;          &lt;/mxGeometry&gt;&lt;br/&gt;        &lt;/mxCell&gt;&lt;br/&gt;        &lt;mxCell id=&amp;quot;3tw9AYnYGGNFN01JuL-y-92&amp;quot; value=&amp;quot;&amp;quot; style=&amp;quot;endArrow=none;html=1;rounded=0;&amp;quot; edge=&amp;quot;1&amp;quot; parent=&amp;quot;1&amp;quot;&gt;&lt;br/&gt;          &lt;mxGeometry width=&amp;quot;50&amp;quot; height=&amp;quot;50&amp;quot; relative=&amp;quot;1&amp;quot; as=&amp;quot;geometry&amp;quot;&gt;&lt;br/&gt;            &lt;mxPoint x=&amp;quot;460&amp;quot; y=&amp;quot;500&amp;quot; as=&amp;quot;sourcePoint&amp;quot; /&gt;&lt;br/&gt;            &lt;mxPoint x=&amp;quot;560&amp;quot; y=&amp;quot;500&amp;quot; as=&amp;quot;targetPoint&amp;quot; /&gt;&lt;br/&gt;          &lt;/mxGeometry&gt;&lt;br/&gt;        &lt;/mxCell&gt;&lt;br/&gt;        &lt;mxCell id=&amp;quot;3tw9AYnYGGNFN01JuL-y-93&amp;quot; value=&amp;quot;&amp;quot; style=&amp;quot;endArrow=none;html=1;rounded=0;exitX=0.936;exitY=1.022;exitDx=0;exitDy=0;exitPerimeter=0;&amp;quot; edge=&amp;quot;1&amp;quot; parent=&amp;quot;1&amp;quot;&gt;&lt;br/&gt;          &lt;mxGeometry width=&amp;quot;50&amp;quot; height=&amp;quot;50&amp;quot; relative=&amp;quot;1&amp;quot; as=&amp;quot;geometry&amp;quot;&gt;&lt;br/&gt;            &lt;mxPoint x=&amp;quot;414.00000000000006&amp;quot; y=&amp;quot;399.99999999999994&amp;quot; as=&amp;quot;sourcePoint&amp;quot; /&gt;&lt;br/&gt;            &lt;mxPoint x=&amp;quot;460&amp;quot; y=&amp;quot;400&amp;quot; as=&amp;quot;targetPoint&amp;quot; /&gt;&lt;br/&gt;          &lt;/mxGeometry&gt;&lt;br/&gt;        &lt;/mxCell&gt;&lt;br/&gt;        &lt;mxCell id=&amp;quot;3tw9AYnYGGNFN01JuL-y-95&amp;quot; value=&amp;quot;&amp;quot; style=&amp;quot;endArrow=none;html=1;rounded=0;entryX=0.077;entryY=1;entryDx=0;entryDy=0;entryPerimeter=0;&amp;quot; edge=&amp;quot;1&amp;quot; parent=&amp;quot;1&amp;quot; target=&amp;quot;3tw9AYnYGGNFN01JuL-y-39&amp;quot;&gt;&lt;br/&gt;          &lt;mxGeometry width=&amp;quot;50&amp;quot; height=&amp;quot;50&amp;quot; relative=&amp;quot;1&amp;quot; as=&amp;quot;geometry&amp;quot;&gt;&lt;br/&gt;            &lt;mxPoint x=&amp;quot;550&amp;quot; y=&amp;quot;500&amp;quot; as=&amp;quot;sourcePoint&amp;quot; /&gt;&lt;br/&gt;            &lt;mxPoint x=&amp;quot;600&amp;quot; y=&amp;quot;450&amp;quot; as=&amp;quot;targetPoint&amp;quot; /&gt;&lt;br/&gt;          &lt;/mxGeometry&gt;&lt;br/&gt;        &lt;/mxCell&gt;&lt;br/&gt;        &lt;mxCell id=&amp;quot;3tw9AYnYGGNFN01JuL-y-96&amp;quot; value=&amp;quot;&amp;quot; style=&amp;quot;endArrow=none;html=1;rounded=0;&amp;quot; edge=&amp;quot;1&amp;quot; parent=&amp;quot;1&amp;quot;&gt;&lt;br/&gt;          &lt;mxGeometry width=&amp;quot;50&amp;quot; height=&amp;quot;50&amp;quot; relative=&amp;quot;1&amp;quot; as=&amp;quot;geometry&amp;quot;&gt;&lt;br/&gt;            &lt;mxPoint x=&amp;quot;470&amp;quot; y=&amp;quot;520&amp;quot; as=&amp;quot;sourcePoint&amp;quot; /&gt;&lt;br/&gt;            &lt;mxPoint x=&amp;quot;560&amp;quot; y=&amp;quot;520&amp;quot; as=&amp;quot;targetPoint&amp;quot; /&gt;&lt;br/&gt;          &lt;/mxGeometry&gt;&lt;br/&gt;        &lt;/mxCell&gt;&lt;br/&gt;        &lt;mxCell id=&amp;quot;3tw9AYnYGGNFN01JuL-y-97&amp;quot; value=&amp;quot;&amp;quot; style=&amp;quot;endArrow=none;html=1;rounded=0;&amp;quot; edge=&amp;quot;1&amp;quot; parent=&amp;quot;1&amp;quot;&gt;&lt;br/&gt;          &lt;mxGeometry width=&amp;quot;50&amp;quot; height=&amp;quot;50&amp;quot; relative=&amp;quot;1&amp;quot; as=&amp;quot;geometry&amp;quot;&gt;&lt;br/&gt;            &lt;mxPoint x=&amp;quot;470&amp;quot; y=&amp;quot;675&amp;quot; as=&amp;quot;sourcePoint&amp;quot; /&gt;&lt;br/&gt;            &lt;mxPoint x=&amp;quot;470&amp;quot; y=&amp;quot;520&amp;quot; as=&amp;quot;targetPoint&amp;quot; /&gt;&lt;br/&gt;          &lt;/mxGeometry&gt;&lt;br/&gt;        &lt;/mxCell&gt;&lt;br/&gt;      &lt;/root&gt;&lt;br/&gt;    &lt;/mxGraphModel&gt;&lt;br/&gt;  &lt;/diagram&gt;&lt;br/&gt;&lt;/mxfile&gt;&quot;&gt;" style="ellipse;whiteSpace=wrap;html=1;" vertex="1" parent="1">
          <mxGeometry x="240" y="290" width="50" height="40" as="geometry" />
        </mxCell>
        <mxCell id="MiiahVeBcN5eX0PWJ4ss-7" value="content" style="ellipse;whiteSpace=wrap;html=1;" vertex="1" parent="1">
          <mxGeometry x="360" y="290" width="80" height="40" as="geometry" />
        </mxCell>
        <mxCell id="MiiahVeBcN5eX0PWJ4ss-8" value="authorId" style="ellipse;whiteSpace=wrap;html=1;" vertex="1" parent="1">
          <mxGeometry x="450" y="290" width="80" height="40" as="geometry" />
        </mxCell>
        <mxCell id="MiiahVeBcN5eX0PWJ4ss-9" value="creationDate" style="ellipse;whiteSpace=wrap;html=1;" vertex="1" parent="1">
          <mxGeometry x="540" y="290" width="80" height="40" as="geometry" />
        </mxCell>
        <mxCell id="MiiahVeBcN5eX0PWJ4ss-10" value="likes" style="ellipse;whiteSpace=wrap;html=1;" vertex="1" parent="1">
          <mxGeometry x="630" y="290" width="80" height="40" as="geometry" />
        </mxCell>
        <mxCell id="MiiahVeBcN5eX0PWJ4ss-11" value="" style="endArrow=none;html=1;rounded=0;entryX=0.5;entryY=1;entryDx=0;entryDy=0;" edge="1" parent="1" target="MiiahVeBcN5eX0PWJ4ss-3">
          <mxGeometry width="50" height="50" relative="1" as="geometry">
            <mxPoint x="480" y="370" as="sourcePoint" />
            <mxPoint x="530" y="320" as="targetPoint" />
          </mxGeometry>
        </mxCell>
        <mxCell id="MiiahVeBcN5eX0PWJ4ss-12" value="" style="endArrow=none;html=1;rounded=0;entryX=0.5;entryY=1;entryDx=0;entryDy=0;exitX=0.5;exitY=0;exitDx=0;exitDy=0;" edge="1" parent="1" source="MiiahVeBcN5eX0PWJ4ss-1">
          <mxGeometry width="50" height="50" relative="1" as="geometry">
            <mxPoint x="540" y="370" as="sourcePoint" />
            <mxPoint x="325" y="330" as="targetPoint" />
          </mxGeometry>
        </mxCell>
        <mxCell id="MiiahVeBcN5eX0PWJ4ss-13" value="" style="endArrow=none;html=1;rounded=0;entryX=0.5;entryY=1;entryDx=0;entryDy=0;exitX=0.5;exitY=0;exitDx=0;exitDy=0;" edge="1" parent="1" source="MiiahVeBcN5eX0PWJ4ss-1">
          <mxGeometry width="50" height="50" relative="1" as="geometry">
            <mxPoint x="615" y="370" as="sourcePoint" />
            <mxPoint x="400" y="330" as="targetPoint" />
          </mxGeometry>
        </mxCell>
        <mxCell id="MiiahVeBcN5eX0PWJ4ss-14" value="" style="endArrow=none;html=1;rounded=0;entryX=0.5;entryY=1;entryDx=0;entryDy=0;exitX=0.5;exitY=0;exitDx=0;exitDy=0;" edge="1" parent="1" source="MiiahVeBcN5eX0PWJ4ss-1">
          <mxGeometry width="50" height="50" relative="1" as="geometry">
            <mxPoint x="705" y="370" as="sourcePoint" />
            <mxPoint x="490" y="330" as="targetPoint" />
          </mxGeometry>
        </mxCell>
        <mxCell id="MiiahVeBcN5eX0PWJ4ss-15" value="" style="endArrow=none;html=1;rounded=0;entryX=0.5;entryY=1;entryDx=0;entryDy=0;exitX=0.5;exitY=0;exitDx=0;exitDy=0;" edge="1" parent="1" source="MiiahVeBcN5eX0PWJ4ss-1">
          <mxGeometry width="50" height="50" relative="1" as="geometry">
            <mxPoint x="795" y="370" as="sourcePoint" />
            <mxPoint x="580" y="330" as="targetPoint" />
          </mxGeometry>
        </mxCell>
        <mxCell id="MiiahVeBcN5eX0PWJ4ss-16" value="" style="endArrow=none;html=1;rounded=0;entryX=0.5;entryY=1;entryDx=0;entryDy=0;exitX=0.5;exitY=0;exitDx=0;exitDy=0;" edge="1" parent="1" source="MiiahVeBcN5eX0PWJ4ss-1">
          <mxGeometry width="50" height="50" relative="1" as="geometry">
            <mxPoint x="885" y="370" as="sourcePoint" />
            <mxPoint x="670" y="330" as="targetPoint" />
          </mxGeometry>
        </mxCell>
      </root>
    </mxGraphModel>
  </diagram>
</mxfile>
